<svg width="128" height="128" viewBox="0 0 128 128" fill="none" xmlns="http://www.w3.org/2000/svg">
<path d="M64 128C99.3462 128 128 99.3462 128 64C128 28.6538 99.3462 0 64 0C28.6538 0 0 28.6538 0 64C0 99.3462 28.6538 128 64 128Z" fill="#ECEFF1"/>
<path d="M110.568 101.432C107.784 99.232 104.392 97.648 100.712 96.88L83.168 93.36C81.328 93 80 91.352 80 89.44V84.88C97.48 83.208 100 79.64 100 76C100 65.24 92.848 40.256 91.672 36.192C91.52 29.912 90.376 26.384 87.504 23.288C85.472 21.088 82.48 20.576 80.072 20.168C79.128 20 77.824 19.784 77.344 19.52C73.08 17.216 68.864 16.096 63.832 16C53.296 16.432 40.344 23.136 35.912 35.392C35.592 36.536 28 63.592 28 76C28 81.176 33.848 83.904 48 85.152V89.44C48 91.352 46.664 93 44.816 93.36L27.256 96.88C23.6 97.656 20.208 99.224 17.432 101.424C16.568 102.12 16.024 103.136 15.936 104.24C15.848 105.344 16.216 106.424 16.96 107.248C28.912 120.44 46.056 128 64 128C81.944 128 99.096 120.44 111.04 107.248C111.784 106.424 112.16 105.336 112.064 104.232C111.976 103.136 111.432 102.12 110.568 101.432Z" fill="#455A64"/>
</svg>
