<svg width="130" height="62" viewBox="0 0 130 62" fill="none" xmlns="http://www.w3.org/2000/svg">
<path d="M56.2443 46.4674H52.5911C52.4624 46.4674 52.3699 46.3221 52.3699 46.1835C52.3699 46.1343 54.3138 39.8671 54.3138 39.8671C54.3832 39.6327 54.3898 39.6259 54.4162 39.6259H54.4195C54.4489 39.6259 54.4525 39.6327 54.5215 39.8671C54.5215 39.8671 56.4654 46.1343 56.4654 46.1835C56.4654 46.3221 56.3664 46.4674 56.2445 46.4674H56.2443ZM61.1716 32.128C61.1535 32.0661 61.1169 32.0111 61.0668 31.9704C61.0167 31.9298 60.9554 31.9053 60.891 31.9003H47.4756C47.4118 31.9054 47.351 31.9295 47.3009 31.9695C47.2509 32.0095 47.2141 32.0636 47.1951 32.1247C47.1951 32.1247 39.7795 56.6056 39.7795 56.6521C39.7795 56.7739 39.8752 56.873 40.0006 56.873H48.8683C48.9034 56.8584 48.9344 56.8354 48.9586 56.806C48.9827 56.7767 48.9993 56.7419 49.007 56.7046L50.0398 53.4046C50.0557 53.3637 50.0833 53.3284 50.1191 53.3032C50.1549 53.2779 50.1974 53.2637 50.2412 53.2624L58.4226 53.2561C58.5114 53.2627 58.5909 53.3254 58.6239 53.4046L59.6799 56.7046C59.6964 56.7808 59.7492 56.8499 59.8185 56.8763L68.5443 56.873C68.6662 56.873 68.7687 56.7805 68.7687 56.6584C68.7687 56.6155 61.1716 32.128 61.1716 32.128ZM86.4513 42.1233L81.0024 42.1266C81.0024 42.1266 80.8575 42.0837 80.8575 41.9187L80.8542 39.1696C80.8542 39.0046 80.9994 38.9617 80.9994 38.9617H85.9958C86.5767 38.9617 87.7515 39.2521 87.7515 40.5953C87.7515 41.9385 86.4513 42.1233 86.4513 42.1233ZM112.576 39.9948H124.922V31.8993H109.048C107.563 31.8993 105.474 32.665 104.276 33.5527C103.078 34.4404 101.345 36.4635 101.345 39.2521C101.345 42.0408 103.038 44.2091 103.038 44.2091C103.906 45.2849 106.091 47.5259 106.091 47.5259C106.14 47.5787 106.17 47.6478 106.17 47.7273C106.17 47.8954 106.035 48.0307 105.866 48.0307H93.6391C92.1507 48.0241 92.0484 47.4335 92.0484 47.3477C92.0484 47.1958 92.2332 47.1001 92.2332 47.1001C92.7911 46.8328 93.9293 45.9448 93.9293 45.9448C96.3452 44.0639 96.636 41.4832 96.636 40.1004C96.636 38.7141 96.4277 36.2621 93.9494 34.1138C91.471 31.9653 88.3325 31.9059 88.3325 31.9059H70.884V56.7303C70.884 56.8092 70.9566 56.872 71.0359 56.872H80.7485V49.9086C80.7485 49.7867 80.9364 49.9086 80.9364 49.9086L85.9958 54.991C87.7944 56.8092 90.7679 56.872 90.7679 56.872L109.896 56.8687C113.16 56.8687 114.975 55.0933 115.473 54.5982C115.968 54.0998 117.622 52.242 117.622 49.1629C117.622 46.087 116.216 44.5128 115.615 43.7902C115.081 43.1432 112.949 40.8858 112.503 40.417C112.476 40.3951 112.455 40.3674 112.44 40.3361C112.425 40.3047 112.417 40.2705 112.417 40.2358C112.417 40.1266 112.48 40.0245 112.576 39.9945V39.9948ZM35.3468 56.8714C35.4128 56.8714 35.459 56.8252 35.4788 56.7526C35.4788 56.7526 42.9934 32.0704 42.9934 32.047C42.9934 31.981 42.9538 31.9087 42.8911 31.9021H33.6273C33.5811 31.9021 33.5514 31.9384 33.5415 31.9879C33.5415 31.9912 31.624 38.4066 31.624 38.4099C31.6108 38.4627 31.5844 38.4957 31.5382 38.4957C31.492 38.4957 31.4524 38.4495 31.4458 38.4099L29.4394 31.9846C29.4328 31.9414 29.3998 31.9021 29.3536 31.9021L19.1229 31.8988C19.1081 31.9028 19.0944 31.9103 19.0829 31.9206C19.0714 31.931 19.0626 31.9438 19.0569 31.9582L17.2583 38.4066C17.2484 38.4627 17.2187 38.4957 17.1691 38.4957C17.1481 38.4953 17.128 38.4875 17.1123 38.4736C17.0965 38.4597 17.0863 38.4406 17.0833 38.4198L15.1757 31.978C15.1734 31.9583 15.1648 31.9399 15.1511 31.9256C15.1374 31.9113 15.1194 31.9019 15.0998 31.8988H5.22564C5.18676 31.8993 5.14967 31.9152 5.12246 31.943C5.09526 31.9707 5.08014 32.0081 5.08041 32.047C5.08041 32.0602 5.08371 32.0866 5.08371 32.0866L12.7105 56.7526C12.7304 56.8252 12.7766 56.8714 12.8426 56.8714L21.0437 56.8747C21.093 56.8681 21.1428 56.812 21.1557 56.7526C21.159 56.7526 24.0104 47.5747 24.0104 47.5747C24.0269 47.5186 24.05 47.4858 24.0962 47.4858C24.1457 47.4858 24.1724 47.5252 24.1853 47.5714L26.9674 56.7922C26.9755 56.8155 26.9907 56.8356 27.0108 56.8498C27.0309 56.864 27.055 56.8716 27.0796 56.8714H35.3468ZM28.2125 5.07914C26.7241 5.07914 24.6386 5.84467 23.4406 6.73258C22.2422 7.62023 20.51 9.64336 20.51 12.432C20.51 15.2207 22.2028 17.389 22.2028 17.389C23.0709 18.4648 25.2555 20.7221 25.2555 20.7221C25.3051 20.7749 25.3348 20.8442 25.3348 20.9201C25.3348 21.0884 25.1994 21.2271 25.0313 21.2271H5.07812V30.0518H29.0608C32.3215 30.0518 34.1397 28.2763 34.6381 27.7781C35.1333 27.283 36.7834 25.4249 36.7834 22.3458C36.7834 19.27 35.3808 17.6792 34.7801 16.9566C34.2453 16.3097 32.1136 14.0656 31.6679 13.6002C31.6412 13.5774 31.6198 13.549 31.605 13.5171C31.5901 13.4852 31.5824 13.4505 31.5821 13.4154C31.5821 13.3065 31.6448 13.2074 31.7406 13.1744H43.2913V30.0518H52.1721V13.2173H62.954V5.07914H28.2125ZM105.671 15.3034L100.222 15.3067C100.222 15.3067 100.077 15.2638 100.077 15.0988L100.074 12.3497C100.074 12.1847 100.219 12.1418 100.219 12.1418H105.216C105.796 12.1418 106.971 12.4323 106.971 13.7754C106.971 15.1186 105.671 15.3034 105.671 15.3034H105.671ZM112.859 21.2108C111.374 21.2042 111.268 20.6136 111.268 20.5278C111.268 20.376 111.453 20.2803 111.453 20.2803C112.011 20.0129 113.149 19.125 113.149 19.125C115.565 17.244 115.856 14.6633 115.856 13.2806C115.856 11.8942 115.647 9.44227 113.169 7.29396C110.691 5.14541 107.552 5.07939 107.552 5.07939H90.1037V29.9102C90.1037 29.9894 90.1766 30.0523 90.2558 30.0523H99.9682V23.0918C99.9682 22.9663 100.156 23.0918 100.156 23.0918L105.216 28.1709C107.014 29.9891 109.988 30.0518 109.988 30.0518H124.921V21.2113H112.859V21.2108ZM75.9375 19.6452H72.2841C72.1487 19.6452 72.0632 19.5 72.0632 19.3614C72.0632 19.3086 74.0068 13.0449 74.0068 13.0449C74.0761 12.8106 74.0957 12.8037 74.1091 12.8037H74.1124C74.1256 12.8037 74.1454 12.8106 74.2148 13.0449C74.2148 13.0449 76.1584 19.3088 76.1584 19.3614C76.1584 19.5 76.0695 19.6452 75.9375 19.6452ZM80.8547 5.29928C80.8372 5.23753 80.8007 5.18289 80.7503 5.14317C80.6999 5.10345 80.6382 5.08068 80.5741 5.07812H67.159C67.0269 5.08473 66.9147 5.17385 66.8784 5.29598C66.8784 5.29598 59.4694 29.7835 59.4694 29.8297C59.4694 29.9518 59.5684 30.0508 59.6903 30.0508H68.5582C68.6309 30.028 68.6834 29.9584 68.6999 29.8825L69.7331 26.5792C69.7497 26.5391 69.7775 26.5047 69.8133 26.4801C69.849 26.4555 69.8911 26.4418 69.9344 26.4405H78.1122C78.156 26.4435 78.1981 26.4583 78.2341 26.4832C78.2702 26.5082 78.2988 26.5425 78.3169 26.5825L79.3731 29.8825C79.3894 29.9587 79.4422 30.0277 79.5115 30.0541L88.2373 30.0508C88.3594 30.0508 88.4584 29.9584 88.4584 29.833C88.4584 29.7934 80.8547 5.29928 80.8547 5.29928Z" fill="#222222"/>
</svg>
