<svg width="128" height="128" viewBox="0 0 128 128" fill="none" xmlns="http://www.w3.org/2000/svg">
<path d="M64 128C99.3462 128 128 99.3462 128 64C128 28.6538 99.3462 0 64 0C28.6538 0 0 28.6538 0 64C0 99.3462 28.6538 128 64 128Z" fill="#ECEFF1"/>
<path d="M110.568 101.424C107.784 99.224 104.392 97.64 100.712 96.872L83.168 93.352C81.328 93 80 91.352 80 89.432V85.408C81.128 83.824 82.192 81.72 83.304 79.52C84.168 77.816 85.472 75.248 86.12 74.584C89.672 71.016 93.104 67.008 94.168 61.84C95.16 56.992 94.184 54.448 93.04 52.4C93.04 47.288 92.88 40.888 91.672 36.232C91.528 29.928 90.384 26.384 87.504 23.28C85.472 21.08 82.48 20.568 80.072 20.16C79.128 20 77.824 19.776 77.344 19.52C73.08 17.216 68.864 16.088 63.832 16C53.296 16.432 40.344 23.136 36.008 35.088C34.664 38.728 34.8 44.704 34.912 49.504L34.808 52.392C33.776 54.408 32.76 56.968 33.76 61.832C34.816 67.008 38.248 71.024 41.864 74.64C42.456 75.248 43.792 77.84 44.672 79.552C45.8 81.744 46.872 83.84 48 85.416V89.44C48 91.352 46.664 93 44.816 93.36L27.256 96.88C23.6 97.656 20.208 99.224 17.432 101.424C16.568 102.12 16.024 103.136 15.936 104.24C15.848 105.344 16.216 106.424 16.96 107.248C28.912 120.432 46.056 128 64 128C81.944 128 99.096 120.44 111.04 107.248C111.784 106.424 112.16 105.336 112.064 104.232C111.976 103.128 111.432 102.112 110.568 101.424Z" fill="#455A64"/>
</svg>
